<svg width="947" height="1016" viewBox="0 0 947 1016" fill="none" xmlns="http://www.w3.org/2000/svg">
<path d="M713 876.77C713 876.77 695 905.933 667 888.059C639 870.185 662 794.926 711 817.504C711 817.504 682 775.17 701 728.133C720 681.096 738 696.148 738 696.148C738 696.148 715 672.63 750 601.133C785 529.637 814 500.474 849 511.763C884 523.052 899 639.704 858 698.97C858 698.97 873 681.096 879 698.97C885 716.844 905 784.578 816 835.378C727 886.178 713 876.77 713 876.77Z" fill="#F3E7D9"/>
<path d="M508 936.978C520.49 933.582 495 822.207 428 818.444C361 814.681 356 844.785 364 864.541C364 864.541 272 761.059 216 746.007C160 730.956 185 759.178 185 759.178C185 759.178 117 743.185 103 763.881C88.9997 784.578 137 853.252 226 886.178C315 919.104 463 949.207 508 936.978Z" fill="#F3E7D9"/>
<path d="M625 716.844C625 716.844 598 629.356 609 596.43C609 596.43 582 596.43 604 542.807C626 489.185 636 482.6 651 490.126C666 497.652 673 533.4 652 568.207C652 568.207 658 546.57 680 553.156C702 559.741 656 692.385 641 713.081C626 733.778 625 716.844 625 716.844Z" fill="#F3E7D9"/>
<path d="M507.999 630.296C507.999 630.296 531.619 628.518 536.999 617.126L538.999 616.185C538.999 616.185 543.999 623.711 530.999 630.296C517.999 636.881 503.999 641.585 507.999 630.296Z" fill="#F3E7D9"/>
<path d="M533.999 605.837C533.999 605.837 544.999 617.126 528.999 625.593C512.999 634.059 488.999 639.704 480.999 620.889C472.999 602.074 494.999 586.081 512.999 589.844C530.999 593.607 533.999 605.837 533.999 605.837Z" fill="#992C29"/>
<path d="M379.999 675.452C378.999 678.274 364.999 694.267 378.999 704.615C392.999 714.963 446.089 665.301 420.999 657.201C395.909 649.102 380.999 672.63 379.999 675.452Z" fill="#992C29"/>
<path d="M421.999 670.748C421.999 670.748 421.999 684.859 404.999 694.267C387.999 703.674 382.999 703.674 377.999 701.793C372.999 699.911 373.999 704.615 375.999 706.496C377.999 708.378 381.999 711.2 395.999 705.556C409.999 699.911 424.999 686.741 426.999 679.215C428.999 671.689 427.999 666.044 421.999 670.748Z" fill="#F3E7D9"/>
<path d="M593.77 795.519C593.339 796.206 593.13 796.998 593.17 797.795C593.32 800.373 594.95 804.785 599.17 808.642C603.72 812.772 609.27 821.144 610.56 823.139C610.767 823.447 611.012 823.732 611.29 823.985C612.54 825.086 615.58 831.991 622.75 830.749C633.96 828.793 631.35 819.338 625.3 810.994C619.25 802.649 614.73 791.991 606.06 789.921C599.15 788.237 595.11 793.402 593.77 795.519Z" fill="#C94039"/>
<path d="M594 792.104C593.57 792.79 594.13 796.055 594.17 796.807C594.32 799.385 595.95 803.797 600.17 807.654C604.805 811.881 608.667 816.798 611.6 822.207C614 826.911 620.79 830.759 627 829.733C633.21 828.708 632.39 818.444 626.34 809.978C620.29 801.511 615.77 790.975 607.1 788.905C600.15 787.296 595.33 789.987 594 792.104Z" fill="#121721"/>
<path d="M560 708.378C560 708.378 572 733.778 577 745.067C582 756.356 587 776.111 588 783.637C589 791.163 589 793.985 594 793.985C599 793.985 611 800.57 616 794.926C621 789.281 614 770.467 614 770.467C614 770.467 616 701.793 599 685.8C577.41 665.489 560 697.089 560 708.378Z" fill="#273252"/>
<path d="M596 730.956L600 773.289C598.546 775.092 597.21 776.977 596 778.933C595 780.815 602 783.637 602 783.637C602 783.637 589 793.985 594 793.985C599 793.985 611 800.57 616 794.926C621 789.281 614 770.467 614 770.467C614 770.467 616 701.793 599 685.8C577.41 665.489 596 719.667 596 730.956Z" fill="#1D2538"/>
<path d="M546.64 843.374C546.64 843.374 541.54 851.389 547.5 861.803C553.46 872.217 556.01 887.438 564.5 894.654C572.99 901.869 582.38 903.469 590.05 897.862C597.72 892.255 590.9 873.017 585.79 865.011C580.68 857.005 579.11 848.567 574.79 841.163C570.47 833.76 556.86 832.16 546.64 843.374Z" fill="#121721"/>
<path d="M497 619.007C502 619.007 559 654.756 575 666.985C591 679.215 603 684.859 603 694.267C603 703.674 599 710.259 592 714.022C585 717.785 579 719.667 561 710.259C543 700.852 514 683.919 491 674.511C468 665.104 467 648.17 476 633.119C485 618.067 497 619.007 497 619.007Z" fill="#273252"/>
<path d="M575 666.985C591 679.215 603 684.859 603 694.267C603 703.674 600 711.2 593 714.963L586 704.615L591 695.207L548 649.111C548 649.111 559 654.756 575 666.985Z" fill="#273252"/>
<path d="M478 750.711C478.75 754.408 481 764.822 488 770.467C495 776.111 505 791.163 512 807.156C516.722 817.526 522.767 827.319 530 836.318C530 836.318 533 848.548 541 852.311C549 856.074 566 850.43 566 850.43C566 850.43 575 847.607 575 841.022C575 834.437 566 817.504 566 817.504C566 817.504 523 720.607 517 718.726C511 716.844 474 730.956 478 750.711Z" fill="#273252"/>
<path d="M495 767.644C495.75 771.342 524 825.03 531 830.674C538 836.318 540 839.141 545 839.141C550 839.141 554 839.141 547 841.022C540 842.904 533 848.548 541 852.311C549 856.074 566 850.43 566 850.43C566 850.43 575 847.607 575 841.022C575 834.437 566 817.504 566 817.504C566 817.504 523 720.607 517 718.726C511 716.844 491 747.889 495 767.644Z" fill="#1D2538"/>
<path d="M407 650.052C407 650.052 409 666.044 429 692.385C429.76 693.382 438.5 700.965 439.23 701.971C457.84 727.559 476 759.178 487 764.822C505.85 774.493 527 772.348 529 751.652C531 730.956 514 710.259 496 677.333C478 644.407 461 614.304 433 626.533C405 638.763 407 650.052 407 650.052Z" fill="#273252"/>
<path d="M504 721.548L476 726.252L487 764.822C487 764.822 525 785.518 529 751.652C531.44 730.956 514 710.259 496 677.333C478 644.407 504 721.548 504 721.548Z" fill="#1D2538"/>
<path d="M415.77 668.867C418 666.985 448 670.748 454 669.807C460 668.867 485 654.756 485 654.756L493 637.822C493 637.822 495 646.289 495 645.348C495 644.407 503 621.83 503 621.83C503 621.83 496 617.126 491 617.126C485 617.126 415.77 668.867 415.77 668.867Z" fill="#1D2538"/>
<path d="M365 546.57C361.3 543.09 301.85 459.731 293.08 447.426C292.783 447.007 292.333 446.704 291.815 446.576C291.297 446.448 290.748 446.502 290.27 446.729V446.729C289.987 446.862 289.739 447.049 289.54 447.28C289.342 447.511 289.198 447.779 289.119 448.066C289.041 448.353 289.029 448.653 289.084 448.945C289.139 449.237 289.26 449.515 289.44 449.759L363 550.333L365 546.57Z" fill="#D77D5B"/>
<path d="M295.46 450.464C295.46 450.464 251 444.03 237 434.622C223 425.215 219 428.037 226 446.852C233 465.667 245 494.83 245 494.83C245 494.83 290 497.652 307 497.652C324 497.652 328.21 495.704 328.21 495.704L295.46 450.464Z" fill="#FFACFF"/>
<path d="M258.04 467.924L286.84 471.716L288.85 474.303L259.18 470.803L258.04 467.924Z" fill="#3E4C6F"/>
<path d="M254.62 461.151L294.83 466.504L296.83 469.091L255.76 464.03L254.62 461.151Z" fill="#3E4C6F"/>
<path d="M251.2 455.318L291.41 460.681L293.41 463.258L252.34 458.207L251.2 455.318Z" fill="#3E4C6F"/>
<path d="M303.55 478.959C301.48 478.404 296.2 477.238 294.55 480.7C292.55 485.008 298.46 488.019 300.46 488.019L298.46 489.9C298.46 489.9 302.29 489.721 304.46 488.019C307.51 485.657 308.16 480.201 303.55 478.959Z" fill="#3E4C6F"/>
<path d="M229 467.548C230 468.489 245 494.83 245 494.83C245 494.83 265 485.422 263 477.896C261 470.37 229 467.548 229 467.548Z" fill="#665070"/>
<path d="M263 477.896C263 477.896 252.51 472.694 236.25 471.066C219.99 469.439 187 474.133 180 476.955C180 476.955 151 410.163 144 404.518C144 404.518 170 397.933 196 402.637C222 407.341 232 421.452 236 429.918C240 438.385 264 469.43 263 477.896Z" fill="#BB83C3"/>
<path d="M207.54 430.445C207.47 432.891 204.47 433.907 200.88 432.703C197.29 431.499 194.51 428.611 194.61 426.212C194.71 423.813 197.61 422.816 201.18 423.954C204.75 425.092 207.61 428.037 207.54 430.445Z" fill="#F3E7D9"/>
<path d="M194.36 452.562L197.48 436.033L212.96 446.993L216.9 421.273L240.65 454.152L194.36 452.562Z" fill="#F3E7D9"/>
<path d="M429.45 502.45C431.66 481.697 384.22 483.456 360.56 489.467C345.92 493.23 331.83 505.338 329.56 512.591C328.78 515.074 325.98 528.978 326.97 535.808C328.04 543.268 342.97 572.855 355.59 567.389C372.9 559.91 427.23 523.212 429.45 502.45Z" fill="#C94039"/>
<path d="M414.83 512.365C415.13 497.887 390.56 486.081 368.88 489.326C343.63 493.089 330.54 508.715 332.24 516.608C333.94 524.501 354.63 530.06 372.24 530.051C389.85 530.042 414.69 518.819 414.83 512.365Z" fill="#F3E7D9"/>
<path d="M366.91 524.068C345.55 518.715 337.62 522.469 337.48 511.932C337.29 497.821 376.42 493.757 385.48 492.6C394.54 491.443 419.8 508.179 417.09 524.933C414.38 541.688 388.27 529.421 366.91 524.068Z" fill="#273252"/>
<path d="M464.8 361.818C464.8 361.818 450.75 338.667 450.75 337.726C450.75 336.785 453 324.32 453 317.97C453 314.207 459 301.978 465 302.918C471 303.859 469 304.8 465 321.733C463.82 326.747 472.14 312.523 476 317.97C479.86 323.417 486 320.793 490 323.615C494 326.437 495.86 342.561 492 346.193C488.14 349.824 485.48 360.435 480.65 363.126C475.82 365.816 464.8 361.818 464.8 361.818Z" fill="#F5894E"/>
<path d="M463 326.437C466.689 325.798 470.303 324.821 473.79 323.521C478 321.733 484 327.378 477 332.081C470 336.785 466 336.785 466 336.785C466 336.785 451 340.548 463 326.437Z" fill="#F5894E"/>
<path d="M586 211.667C586 211.667 570.9 256.822 582.45 288.807C594 320.793 659 268.111 630 237.067C601 206.022 586 211.667 586 211.667Z" fill="#665070"/>
<path d="M604 181.563C606 183.444 629 216.37 673 209.785C717 203.2 737 185.326 763 186.267C763 186.267 747 230.481 763 276.578C763 276.578 737 276.578 688 288.807C639 301.037 613 309.504 590 297.274C567 285.044 598 279.4 613 269.052C628 258.704 628.53 249.945 617.26 232.222C605.99 214.498 604 181.563 604 181.563Z" fill="#856792"/>
<path d="M634.27 279.729C648.033 279.729 659.19 269.233 659.19 256.286C659.19 243.339 648.033 232.843 634.27 232.843C620.507 232.843 609.35 243.339 609.35 256.286C609.35 269.233 620.507 279.729 634.27 279.729Z" fill="#F7BC4B"/>
<path d="M644.94 252.636C646.696 252.636 648.12 251.297 648.12 249.644C648.12 247.992 646.696 246.653 644.94 246.653C643.183 246.653 641.76 247.992 641.76 249.644C641.76 251.297 643.183 252.636 644.94 252.636Z" fill="#121721"/>
<path d="M623.55 252.636C625.306 252.636 626.73 251.297 626.73 249.644C626.73 247.992 625.306 246.653 623.55 246.653C621.794 246.653 620.37 247.992 620.37 249.644C620.37 251.297 621.794 252.636 623.55 252.636Z" fill="#121721"/>
<path d="M634.81 268.534C638.323 268.534 641.17 265.632 641.17 262.053C641.17 258.473 638.323 255.571 634.81 255.571C631.298 255.571 628.45 258.473 628.45 262.053C628.45 265.632 631.298 268.534 634.81 268.534Z" fill="#121721"/>
<path d="M626.559 242.429C625.309 241.093 621.639 240.905 619.779 243.595" stroke="#121721" stroke-linecap="round" stroke-linejoin="round"/>
<path d="M641.7 242.429C642.94 241.093 646.62 240.905 648.47 243.595" stroke="#121721" stroke-linecap="round" stroke-linejoin="round"/>
<path d="M532 424.274L322.48 119.822C322.056 119.209 321.782 118.514 321.678 117.789C321.574 117.065 321.642 116.327 321.877 115.63C322.113 114.932 322.509 114.293 323.039 113.757C323.568 113.221 324.218 112.803 324.94 112.531V112.531C326.08 112.102 327.345 112.061 328.514 112.417C329.683 112.773 330.683 113.502 331.34 114.479L538 420.511L532 424.274Z" fill="#7A462F"/>
<path d="M331 131.704L340 127C341.512 126.738 343.037 126.553 344.57 126.445C354.22 126.078 365.5 126.53 372 129.822C385 136.407 379 145.815 416 155.222C453 164.63 463 164.63 476 158.044C489 151.459 501 128.881 553 142.052C605 155.222 614 170.274 614 170.274C614 170.274 607 218.252 623 242.711C623 242.711 614 225.778 576 227.659C538 229.541 523 238.007 491 247.415C469.46 253.746 440.95 254.442 426 254C418.74 253.784 416 258.704 416 258.704L331 131.704Z" fill="#BB83C3"/>
<path d="M581.66 227.753C581.66 227.753 613.66 227.405 623 242.711C632.34 258.017 613.84 269.438 607 272.664C600.16 275.891 583.79 281.131 581.68 289.776C581.68 289.776 573.77 279.108 581.68 227.753" fill="#665070"/>
<path d="M722.334 254.173C728.138 242.187 723.545 228.487 712.076 223.572C700.607 218.657 686.604 224.389 680.8 236.375C674.997 248.361 679.59 262.061 691.059 266.976C702.528 271.891 716.531 266.159 722.334 254.173Z" fill="#C94039"/>
<path d="M691.577 251.247C693.193 250.901 694.269 249.655 693.981 248.465C693.693 247.274 692.15 246.59 690.535 246.936C688.919 247.281 687.843 248.527 688.131 249.717C688.419 250.908 689.962 251.593 691.577 251.247Z" fill="#121721"/>
<path d="M696.149 248.393L686.569 245.176" stroke="#121721" stroke-width="2" stroke-linecap="round" stroke-linejoin="round"/>
<path d="M712.06 249.616C713.675 249.271 714.752 248.025 714.464 246.835C714.176 245.644 712.633 244.959 711.017 245.305C709.401 245.651 708.325 246.896 708.613 248.087C708.901 249.277 710.444 249.962 712.06 249.616Z" fill="#121721"/>
<path d="M706.46 247.565L716.04 242.824" stroke="#121721" stroke-width="2" stroke-linecap="round" stroke-linejoin="round"/>
<path d="M709.24 257.246C709.6 255.223 706.44 254.593 702.31 255.035C698.18 255.477 695.62 257.001 695.38 258.685C695.14 260.369 708.88 259.259 709.24 257.246Z" fill="#121721"/>
<path d="M500.27 201.149C505.43 214.809 501.64 227.763 489.63 230.623C474.3 234.244 451.83 220.735 443.76 199.437C435.69 178.139 448.34 165.664 466.82 170.359C481.29 174.037 495.1 187.499 500.27 201.149Z" fill="#F7BC4B"/>
<path d="M476.42 210.011C480.54 204.658 487.64 209.494 487.64 209.494" stroke="#121721" stroke-width="3" stroke-linecap="round" stroke-linejoin="round"/>
<path d="M489.19 194.667C489.9 196.549 489.24 198.026 487.66 197.941C486.08 197.857 484.08 196.154 483.32 194.178C482.56 192.203 483.32 190.735 485 190.923C486.68 191.111 488.47 192.777 489.19 194.667Z" fill="#121721"/>
<path d="M466.679 192.73C467.539 195.006 466.429 196.746 464.139 196.624C461.849 196.502 459.039 194.413 458.139 191.986C457.239 189.559 458.509 187.838 460.939 188.12C462.231 188.373 463.434 188.928 464.437 189.733C465.44 190.539 466.211 191.569 466.679 192.73V192.73Z" fill="#121721"/>
<path d="M552.32 210.876C567.723 210.876 580.21 199.13 580.21 184.639C580.21 170.149 567.723 158.402 552.32 158.402C536.916 158.402 524.43 170.149 524.43 184.639C524.43 199.13 536.916 210.876 552.32 210.876Z" fill="#F7BC4B"/>
<g style="mix-blend-mode:multiply">
<path d="M537.159 170.443L545.599 174.771L532.939 177.649" stroke="#121721" stroke-width="2" stroke-linecap="round" stroke-linejoin="round"/>
</g>
<g style="mix-blend-mode:multiply">
<path d="M566.83 170.443L558.39 174.771L571.05 177.649" stroke="#121721" stroke-width="2" stroke-linecap="round" stroke-linejoin="round"/>
</g>
<path d="M567 180.895C557.112 178.735 546.811 178.887 537 181.337C536.034 181.573 535.198 182.141 534.654 182.927C534.11 183.714 533.898 184.663 534.06 185.589C535.06 192.259 542.46 201.394 552.63 201.394C562.8 201.394 569.5 192.692 570.21 184.987C570.316 184.051 570.045 183.111 569.451 182.354C568.857 181.596 567.982 181.076 567 180.895V180.895Z" fill="#121721"/>
<path d="M539 195.42C540.524 193.272 542.617 191.535 545.072 190.381C547.527 189.226 550.259 188.693 553 188.835C562.63 189.249 566.27 194.479 566.27 194.479C566.27 194.479 563.21 200.773 554 201.318C544.79 201.864 539 195.42 539 195.42Z" fill="#EE5D4F"/>
<path opacity="0.46" d="M331 131.704L340 127C341.512 126.738 343.037 126.553 344.57 126.445C354.22 126.078 365.5 126.53 372 129.822C385 136.407 379 145.815 416 155.222C453 164.63 463 164.63 476 158.044C489 151.459 414.71 253.059 414.71 253.059L331 131.704Z" fill="#FFACFF"/>
<path d="M468.079 317.792C468.079 317.792 463.939 330.303 469.149 332.665C474.359 335.026 475.149 326.7 475.149 326.7C475.149 326.7 473.929 332.241 475.309 335.938C476.689 339.636 479.099 338.714 481.019 334.998C482.939 331.282 481.219 334.057 481.219 334.057C481.219 334.057 479.589 341.451 483.989 341.451C488.389 341.451 492.649 326.531 490.119 323.361C487.589 320.19 487.749 320.783 484.119 321.413C484.119 321.413 481.029 317.265 476.589 318.732C476.589 318.732 475.259 314.396 468.089 317.792" fill="#F5894E"/>
<path d="M466 347.133C466 347.133 471 336.691 468.52 333.446C468.52 333.446 475 339.607 466 347.133Z" fill="#CC6D3D"/>
<path d="M463 326.437C466.689 325.798 470.303 324.821 473.79 323.521C478 321.733 484 327.378 477 332.081C470 336.785 466 336.785 466 336.785C466 336.785 451 340.548 463 326.437Z" fill="#CC6D3D"/>
<path d="M461 326.437C464.689 325.798 468.303 324.821 471.79 323.521C476 321.733 482 327.378 475 332.081C471.475 334.356 468.133 336.872 465 339.607C465 339.607 449 340.548 461 326.437Z" fill="#F5894E"/>
<path d="M460 358.836C461.72 363.719 464.42 359.175 473.27 359.852C480.63 360.407 486.27 363.361 487.56 359.269C489.07 354.311 483.5 354.763 471.93 354.716C464.5 354.659 458.24 353.944 460 358.836Z" fill="#F3E7D9"/>
<path d="M476.94 458.451C471.061 457.098 465.802 454.001 461.94 449.618C456.94 443.823 458.18 438.037 459.31 429.006C461.55 411.047 459.6 418.949 457.91 406.513C455.76 390.624 452.18 361.357 466.22 359.278C483.46 356.691 487.48 358.196 489.08 363.418C490.68 368.639 487.99 366.701 489.08 370.454C490.17 374.208 493 410.05 494.52 417.952C496.04 425.854 495.24 430.285 495.24 430.285C495.24 430.285 496.17 439.42 496.13 444.284C496.09 449.147 495.14 460.493 476.94 458.451Z" fill="#C94039"/>
<path d="M476.88 458.903C476.88 458.903 486.25 442.59 487.02 436.118C488.1 426.993 476.81 368.309 476.81 368.309C476.81 368.309 482.91 350.877 489.11 363.418C491.54 368.338 490.53 390.784 491.62 394.537C492.71 398.291 493.03 410.05 494.55 417.952C496.07 425.855 495.27 430.285 495.27 430.285C495.27 430.285 496.2 439.42 496.16 444.284C496.12 449.147 495.07 460.963 476.88 458.903Z" fill="#992C29"/>
<path d="M486.519 427.426L479.809 407.755L471.149 394.942C471.149 394.942 486.579 403.982 488.309 412.534C489.367 417.552 488.742 422.756 486.519 427.426V427.426Z" fill="#992C29"/>
<path d="M463.18 538.01C456.93 538.518 437.27 509.261 437.27 498.038C437.27 493.164 448.67 479.524 448.67 479.524L449.67 474.651C450.49 470.963 454 447.793 458 444.03C462 440.267 468 446.852 478 446.852C488 446.852 496.66 433.136 496.34 447.35C496.02 461.565 484.52 483.663 483.28 494.604C482.04 505.545 469.58 537.483 463.18 538.01Z" fill="#273252"/>
<path d="M463.18 538.01C456.93 538.518 437.27 509.261 437.27 498.038C437.27 493.164 450.85 499.919 454.27 500.173C457.69 500.427 469.84 491.245 469.84 491.245L466.41 486.034C466.41 486.034 468 446.852 478 446.852C488 446.852 496.66 433.136 496.34 447.35C496.02 461.565 484.52 483.663 483.28 494.604C482.04 505.545 469.58 537.483 463.18 538.01Z" fill="#1D2538"/>
<path d="M506.999 609.6C504.999 612.422 504.999 614.304 508.999 615.244C512.999 616.185 511.999 611.481 520.999 610.541C526.609 609.957 533.749 614.153 535.999 618.067C537.359 620.437 533.739 623.833 535.999 622.77C541.999 619.948 542.999 609.6 528.999 605.837C525.058 604.708 520.874 604.547 516.848 605.37C512.822 606.194 509.087 607.974 505.999 610.541" fill="#F3E7D9"/>
<path d="M373.17 519.336C373.17 519.336 389.34 506.429 421 500.521C431 498.64 447.45 509.58 459 534.388C470.55 559.195 499 612.469 499 612.469C499 612.469 477.31 640.39 452 656.684C433.23 668.763 410.66 671.567 403 667.032C385 656.336 347.28 535.216 373.17 519.336Z" fill="#F7BC4B"/>
<path d="M417.93 509.101C420.87 515.545 414.1 527.68 404.81 531.434C395.52 535.187 381.02 529.336 378.07 522.892C375.12 516.448 385.73 512.704 395 508.941C404.27 505.178 415 502.657 417.93 509.101Z" fill="#F5894E"/>
<path d="M456.999 626.674L444.549 569.967L418.269 505.855C430.489 503.974 454.699 517.398 466.269 542.205C477.839 567.013 499.589 612.422 499.589 612.422L492.589 626.533L447.999 666.044L404.999 668.867L418.669 666.157C418.669 666.157 444.609 659.572 448.469 654.991C456.339 645.583 468.869 615.348 468.869 615.348L456.999 626.674Z" fill="#CE9436"/>
<path d="M419.36 505.629C421.2 499.373 429 495.77 435 495.77C441 495.77 432 495.77 452 515.526C457.23 520.691 464.08 525.206 467.51 530.578C493.06 570.832 522.67 580.437 529 587.022C536.18 594.548 544.42 611.274 539 622.77C536.52 628.02 547 608.659 525 604.896C516.15 603.382 506 610.541 506 610.541C496 606.778 471.8 585.47 462.84 566.044C458.23 556.053 447 535.648 437 523.052C427.52 511.161 419 506.796 419.36 505.629Z" fill="#C94039"/>
<path d="M419.36 505.629C421.2 499.373 429 495.77 435 495.77C441 495.77 432 495.77 452 515.526C457.23 520.691 464.08 525.206 467.51 530.578C493.06 570.832 522.67 580.437 529 587.022C536.18 594.548 544.42 611.274 539 622.77C536.52 628.02 547 608.659 525 604.896L515.2 586.514C505.2 582.751 481.97 564.934 481.97 564.934C481.97 564.934 447 535.648 437 523.052C427.52 511.161 419 506.796 419.36 505.629Z" fill="#992C29"/>
<path d="M406.5 503.767C422.83 508.894 430.66 556.053 423.5 558.245C416.34 560.437 371.38 521.819 380.5 512.233" stroke="#992C29" stroke-miterlimit="10"/>
<path d="M426.445 566.849C427.855 566.443 428.327 564.055 427.499 561.517C426.672 558.979 424.858 557.251 423.448 557.658C422.038 558.064 421.566 560.452 422.394 562.99C423.221 565.528 425.035 567.256 426.445 566.849Z" fill="#29ABE2"/>
<path d="M414.439 499.806C420.379 497.454 423.089 498.376 427.299 499.496C431.509 500.615 434.839 504.453 442.039 514.642C449.239 524.83 460.449 555.498 457.039 556.918C453.629 558.339 442.329 531.65 435.039 523.052C427.749 514.453 408.499 502.158 414.439 499.806Z" fill="#F3E7D9"/>
<path d="M399.999 679.215C407.219 676.948 410.999 669.807 403.999 670.748C396.999 671.689 394.999 676.393 387.999 681.096C380.999 685.8 372.329 693.947 376.999 702.733C378.999 706.496 379.999 706.496 382.999 700.852C385.999 695.207 387.999 682.978 399.999 679.215Z" fill="#F3E7D9"/>
<path d="M372.889 523.155C380.069 525.611 395.889 554.717 401.559 571.133C407.229 587.549 403.809 613.636 407.289 624.022C410.769 634.407 412.179 667.992 409.939 670.899C409.049 672.056 392.359 676.675 385.999 682.949C380.168 688.895 376.644 696.52 375.999 704.587C375.999 704.587 341.209 677.107 358.999 622.742C357.999 601.105 334.349 554.783 335.999 547.483C337.649 540.183 365.709 520.691 372.889 523.155Z" fill="#992C29"/>
<path d="M381.439 534.849C388.629 537.304 395.899 554.717 401.559 571.161C407.219 587.605 403.809 613.664 407.289 624.05C410.769 634.436 412.179 668.02 409.939 670.927C408.299 673.062 402.999 633.118 402.999 633.118C402.999 633.118 392.639 631.058 391.559 623.372C391.039 619.609 393.289 571.331 393.289 571.331C393.289 571.331 374.259 532.384 381.439 534.849Z" fill="#C94039"/>
<path d="M405.3 581.688C407.53 577.558 404.54 570.86 399.79 560.644C395.04 550.427 388 533.654 379.38 524.67C370.33 515.262 350.16 525.535 359.28 529.374C368.7 533.334 379.17 540.578 388.99 556.015C399.91 573.184 403.08 585.809 405.3 581.688Z" fill="#F3E7D9"/>
<path d="M387.769 645.866L391.669 646.806C391.669 646.806 388.979 661.106 376.829 664.558L375.619 661.952C375.619 661.952 384.589 658.725 387.769 645.866Z" fill="#F3E7D9"/>
<path d="M395.55 576.072C395.55 576.072 404.73 599.873 388.77 608.951C392.498 598.305 394.776 587.257 395.55 576.072V576.072Z" fill="#C94039"/>
<path d="M495.999 588.904L496.999 592.469C496.999 592.469 501.999 595.489 518.999 593.607L517.999 589.844C517.999 589.844 504.999 594.548 495.999 588.904Z" fill="#F3E7D9"/>
<path d="M601.799 412.167C620.588 412.167 635.819 397.838 635.819 380.163C635.819 362.487 620.588 348.159 601.799 348.159C583.011 348.159 567.779 362.487 567.779 380.163C567.779 397.838 583.011 412.167 601.799 412.167Z" fill="#29ABE2"/>
<path d="M579.319 382.543L598.409 364.64L625.419 372.449" stroke="#F3E7D9" stroke-width="5" stroke-linecap="round" stroke-linejoin="round"/>
<path d="M617.21 373.154C617.151 372.177 616.77 371.241 616.119 370.477C615.469 369.713 614.581 369.159 613.58 368.893L601.76 365.553C600.769 365.278 599.718 365.263 598.719 365.508C597.72 365.754 596.811 366.25 596.09 366.945L588.09 374.669C587.353 375.366 586.868 376.263 586.701 377.233C586.534 378.203 586.694 379.198 587.16 380.078L596 396.174C596.576 397.161 597.487 397.938 598.587 398.381C599.687 398.824 600.913 398.908 602.07 398.62L613.83 395.901C615.027 395.649 616.095 395.016 616.854 394.11C617.613 393.203 618.018 392.079 618 390.925L617.21 373.154ZM604.56 385.901C603.486 386.087 602.377 385.973 601.371 385.573C600.365 385.173 599.506 384.504 598.9 383.65C598.293 382.796 597.966 381.793 597.958 380.766C597.951 379.738 598.263 378.731 598.857 377.869C599.451 377.007 600.301 376.328 601.3 375.914C602.3 375.501 603.407 375.373 604.484 375.545C605.56 375.717 606.56 376.181 607.359 376.882C608.158 377.582 608.721 378.487 608.98 379.485C609.297 380.888 609.01 382.351 608.181 383.554C607.352 384.757 606.05 385.601 604.56 385.901V385.901Z" fill="#F3E7D9"/>
<path opacity="0.5" d="M630.999 370.925C630.999 382.646 575.129 382.646 575.129 370.925C575.129 359.203 587.629 349.702 603.059 349.702C618.489 349.702 630.999 359.203 630.999 370.925Z" fill="#FFFCF3"/>
<path d="M556.81 450.577L570 475.14" stroke="#F7BC4B" stroke-width="3" stroke-linecap="round" stroke-linejoin="round"/>
<path d="M546.969 478.216L571.629 461.16" stroke="#F7BC4B" stroke-width="3" stroke-linecap="round" stroke-linejoin="round"/>
<path d="M542.779 470.54L567.439 453.493" stroke="#F7BC4B" stroke-width="3" stroke-linecap="round" stroke-linejoin="round"/>
<path d="M546.35 458L559.54 482.562" stroke="#F7BC4B" stroke-width="3" stroke-linecap="round" stroke-linejoin="round"/>
<path d="M376.21 279.362L309.75 314.593L361.97 336.428L376.21 279.362Z" fill="#33A86D"/>
<path opacity="0.5" d="M376.21 279.362L350.63 294L361.97 336.428L376.21 279.362Z" fill="#FFFCF3"/>
<path d="M376.21 279.362L372.67 283.135L333.22 324.264L336.12 325.261L376.21 279.362Z" fill="#288453"/>
<path d="M278.739 227.565C279.569 229.193 285.919 242.081 282.169 249.974C282.085 250.146 282.063 250.34 282.105 250.525C282.147 250.711 282.251 250.879 282.402 251.005C282.554 251.13 282.744 251.207 282.945 251.223C283.146 251.239 283.348 251.193 283.519 251.093C290.789 246.822 306.379 235.505 305.909 217.132C305.309 193.397 278.479 219.014 278.649 227.198C278.649 227.325 278.68 227.451 278.739 227.565V227.565Z" fill="#F7BC4B"/>
<path d="M282.699 185.222H261.279C248.461 185.222 238.069 194.998 238.069 207.057V216.38C238.069 228.439 248.461 238.214 261.279 238.214H282.699C295.518 238.214 305.909 228.439 305.909 216.38V207.057C305.909 194.998 295.518 185.222 282.699 185.222Z" fill="#F7BC4B"/>
<path opacity="0.5" d="M256.649 201.112C255.582 200.504 254.715 199.629 254.145 198.585C253.575 197.541 253.324 196.368 253.421 195.198C253.517 194.027 253.957 192.905 254.691 191.956C255.425 191.007 256.425 190.269 257.579 189.823C267.719 186.003 284.229 189.108 288.119 189.54C299.759 190.857 302.249 203.652 301.949 216.21C301.923 217.289 301.595 218.343 300.999 219.265C300.403 220.187 299.559 220.945 298.553 221.463C297.547 221.982 296.414 222.242 295.267 222.219C294.12 222.195 293 221.888 292.019 221.328L256.649 201.112Z" fill="#FFFCF3"/>
<path d="M169.77 354.782C190.564 354.782 207.42 338.924 207.42 319.363C207.42 299.801 190.564 283.944 169.77 283.944C148.977 283.944 132.12 299.801 132.12 319.363C132.12 338.924 148.977 354.782 169.77 354.782Z" fill="#29ABE2"/>
<path d="M161.08 343.596C157.82 345.365 154.42 344.621 152.08 340.84L147.55 332.768C145.23 329.005 145.41 325.176 148.67 323.361C151.93 321.592 155.14 322.006 157.46 325.788L161.99 333.859C164.33 337.726 164.34 341.827 161.08 343.596Z" fill="#F3E7D9"/>
<path d="M158.931 324.603C157.671 322.618 158.491 320.454 159.021 318.187C159.691 315.317 160.911 308.779 160.421 307.65C159.601 305.712 155.421 298.243 156.321 296.173C157.221 294.104 162.791 293.652 165.151 295.891C168.021 298.619 168.021 299.936 169.061 303.812C169.931 307.095 169.601 307.754 173.061 306.71C177.061 305.496 182.721 304.979 184.461 304.264C185.043 304.036 185.668 303.924 186.299 303.934C186.929 303.945 187.55 304.078 188.123 304.326C188.696 304.573 189.208 304.929 189.628 305.372C190.047 305.815 190.365 306.334 190.561 306.898C190.773 307.353 190.857 307.852 190.804 308.346C190.752 308.84 190.564 309.314 190.261 309.72C190.893 310.057 191.443 310.517 191.874 311.068C192.305 311.619 192.607 312.25 192.761 312.919C193.098 314.405 192.923 315.954 192.261 317.34C192.261 317.34 195.761 318.751 194.561 323.455C194.561 323.455 196.871 327.754 193.861 330.228C191.571 332.11 187.441 333.681 182.461 335.684C174.061 339.071 168.211 339.212 166.561 337.66C164.911 336.108 158.931 324.603 158.931 324.603Z" fill="#F3E7D9"/>
<path opacity="0.5" d="M197.42 314.772C197.42 329.824 138.82 329.824 138.82 314.772C138.82 307.461 141.907 300.451 147.402 295.281C152.897 290.112 160.349 287.208 168.12 287.208C175.891 287.208 183.344 290.112 188.839 295.281C194.333 300.451 197.42 307.461 197.42 314.772V314.772Z" fill="#FFFCF3"/>
<path d="M319.8 385.337C320.266 386.843 320.407 388.422 320.217 389.98C320.026 391.538 319.507 393.045 318.69 394.413C317.873 395.78 316.774 396.98 315.458 397.943C314.142 398.906 312.634 399.613 311.024 400.021C309.415 400.43 307.734 400.532 306.082 400.322C304.429 400.113 302.838 399.595 301.401 398.8C299.963 398.004 298.709 396.947 297.711 395.69C296.714 394.433 295.992 393.002 295.59 391.48" stroke="#F7BC4B" stroke-width="3" stroke-miterlimit="10"/>
<path d="M295.569 353.794C295.569 353.794 306.209 347.321 314.399 361.799C316.879 366.183 318.599 369.325 321.779 374.706C323.219 377.124 329.259 382.571 329.259 382.571L305.549 388.592" stroke="#F7BC4B" stroke-width="3" stroke-miterlimit="10"/>
<path d="M299.939 352.684C299.939 352.684 287.279 352.129 287.939 368.516C288.139 373.474 288.339 376.983 288.459 383.154C288.509 385.929 286.189 393.502 286.189 393.502L309.909 387.491" stroke="#F7BC4B" stroke-width="3" stroke-miterlimit="10"/>
<path d="M172.519 569.891C183.809 585.338 205.169 589.421 220.859 580.428C236.239 571.613 242.419 552.328 234.309 535.912C225.389 517.887 202.639 509.674 183.949 519.449C164.819 529.449 160.059 552.873 172.519 569.891Z" fill="#EE5D4F"/>
<path opacity="0.5" d="M199.51 540.371C199.51 540.371 235.92 551.773 228.84 537.455C221.05 521.725 201.21 514.585 184.91 523.052C168.22 531.81 199.51 540.371 199.51 540.371Z" fill="#FFFCF3"/>
<g style="mix-blend-mode:color-dodge">
<path d="M179.939 551.321C179.819 538.245 195.779 542.713 197.819 543.344C198.279 541.368 202.199 526.354 213.819 532.995C230.819 542.826 215.489 566.401 213.669 569.073L213.739 569.195H213.579C213.553 569.241 213.523 569.285 213.489 569.327L213.419 569.205C210.059 569.487 180.129 570.926 179.939 551.321Z" fill="#FFFCF3"/>
</g>
<path d="M394.54 584.934L444.49 565.705C446.661 564.871 449.09 564.859 451.27 565.671C453.451 566.482 455.213 568.055 456.19 570.061L475.71 610.202C476.213 611.233 476.493 612.348 476.532 613.482C476.572 614.616 476.371 615.746 475.94 616.806C475.51 617.866 474.86 618.835 474.027 619.655C473.194 620.476 472.195 621.132 471.09 621.585L417.54 643.58C416.394 644.052 415.157 644.297 413.907 644.299C412.656 644.301 411.418 644.059 410.271 643.589C409.125 643.119 408.094 642.431 407.243 641.568C406.393 640.705 405.741 639.686 405.33 638.575L389.4 595.658C388.635 593.591 388.742 591.327 389.698 589.332C390.654 587.337 392.387 585.763 394.54 584.934V584.934Z" fill="#F3E7D9"/>
<path d="M433.31 621.999C443.654 621.999 452.04 614.11 452.04 604.379C452.04 594.648 443.654 586.759 433.31 586.759C422.966 586.759 414.58 594.648 414.58 604.379C414.58 614.11 422.966 621.999 433.31 621.999Z" fill="#29ABE2"/>
<path d="M425.58 596.909L433.75 615.263L442.5 600.4L425.58 596.909Z" fill="#C94039"/>
<g opacity="0.5">
<path opacity="0.5" d="M409.31 582.121L445.31 568.264C446.875 567.663 448.626 567.655 450.196 568.241C451.767 568.826 453.037 569.96 453.74 571.406L467.81 600.324C469.32 603.457 406.08 583.363 409.31 582.121Z" fill="#FFFCF3"/>
</g>
<path d="M373.52 492.205L386.46 524.19C386.46 524.19 391.09 529.835 401.3 526.561C411.51 523.287 411.21 515.008 411.21 515.008L397.09 479.119L373.52 492.205Z" fill="#F5894E"/>
<path d="M373.52 492.205C373.52 492.205 390.42 511.02 396.4 513.842C402.38 516.664 410 513.644 410 513.644L398.34 478.837L373.52 492.205Z" fill="#CC6D3D"/>
<path d="M354.1 487.087C370.5 503.08 379.7 504.491 379.7 504.491C412.79 496.09 417.92 468.263 408.7 449.928C399.9 430.633 395.75 425.93 372.75 433.559C340.69 444.171 339.49 472.854 354.1 487.087Z" fill="#1D2538"/>
<path d="M354.1 487.087C370.5 503.071 378 497.652 378 497.652C411.1 489.26 417.92 468.263 408.68 449.919C399.88 430.624 397.68 422.505 370.46 429.975C332.63 440.351 339.49 472.854 354.1 487.087Z" fill="#3E4C6F"/>
<path d="M352.05 488.066C366.05 501.697 385.26 481.179 385.26 481.179C388.99 476.626 384.2 459.542 380.87 448.301C378 438.611 380.11 427.745 353.77 440.22C330.36 451.311 339.6 475.93 352.05 488.066Z" fill="#1D2538"/>
<path d="M373.51 435.892C373.51 435.892 394.01 438.169 398.1 440.135C402.19 442.101 417.56 473.541 416.25 485.686C414.95 497.671 379.38 508.809 368.54 504.293C359.66 500.606 358.8 494.049 353.41 484.613C347.73 474.67 352.62 465.13 351.82 460.775C350.43 453.324 373.51 435.892 373.51 435.892Z" fill="#CC6D3D"/>
<path d="M345.54 486.448C349.34 491.847 355.63 495.356 358.09 494.152C360.55 492.948 359.5 487.567 355.69 482.111C351.88 476.654 346.76 473.221 344.3 474.481C341.84 475.742 341.74 481.038 345.54 486.448Z" fill="#CC6D3D"/>
<path d="M397.539 445.808C404.459 447.219 420.039 481.339 412.359 489.618C404.679 497.896 395.459 499.515 386.509 496.325C378.669 493.503 372.559 468.207 378.509 459.928C385.709 449.796 390.609 444.406 397.539 445.808Z" fill="#F5894E"/>
<path d="M347.89 454.745C347.89 454.745 355.84 469.495 355.77 474.745L354.21 483.023L343.87 461.753L347.89 454.745Z" fill="#1D2538"/>
<path d="M395.059 427.811C395.059 427.811 391.209 435.892 371.239 442.195C361.329 445.318 354.059 451.349 348.919 451.913C336.279 453.286 348.969 426.127 369.109 419.062C389.469 411.931 395.059 427.811 395.059 427.811Z" fill="#1D2538"/>
<path d="M369.14 418.79C353.21 425.093 341.05 444.538 351.23 443.428C354.12 443.108 358.68 442.487 364.11 441.414C372.86 437.256 380.91 429.871 380.91 429.871C381.74 434.246 377.19 437.491 371.83 439.749C376.908 438.55 381.915 437.1 386.83 435.403C395.19 432.487 396.23 432.628 395.9 429.806C395.25 424.058 386.35 411.988 369.14 418.79Z" fill="#3E4C6F"/>
<path d="M369.82 461.904C370.56 464.171 372.02 464.839 373.23 464.491C374.44 464.143 374.93 462.91 374.23 460.634C373.53 458.357 371.91 456.805 370.7 457.153C369.49 457.501 369.08 459.608 369.82 461.904Z" fill="#34283A"/>
<path d="M390.11 456.259C390.85 458.526 392.31 459.194 393.52 458.846C394.73 458.498 395.22 457.266 394.52 454.999C393.82 452.731 392.2 451.17 391 451.518C389.8 451.866 389.37 453.992 390.11 456.259Z" fill="#34283A"/>
<path d="M364 456.344C364.131 456.298 364.247 456.219 364.335 456.117C364.423 456.014 364.48 455.891 364.5 455.761V455.761C364.5 455.591 365.22 451.612 368.72 451.396C368.823 451.39 368.923 451.365 369.015 451.322C369.107 451.28 369.19 451.22 369.257 451.148C369.325 451.075 369.377 450.991 369.41 450.899C369.443 450.808 369.457 450.711 369.45 450.615C369.437 450.419 369.343 450.236 369.187 450.106C369.032 449.976 368.828 449.908 368.62 449.919C364.81 450.154 363.24 453.682 362.95 455.563C362.921 455.756 362.974 455.952 363.098 456.109C363.221 456.265 363.405 456.37 363.61 456.4C363.743 456.41 363.876 456.391 364 456.344V456.344Z" fill="#34283A"/>
<path d="M396.999 446.551C397.072 446.527 397.14 446.492 397.199 446.447C397.363 446.33 397.471 446.156 397.499 445.964C397.527 445.772 397.473 445.577 397.349 445.422C395.179 442.694 391.349 443.362 389.689 444.095C389.51 444.177 389.371 444.32 389.301 444.495C389.23 444.67 389.233 444.863 389.309 445.036C389.396 445.205 389.548 445.336 389.733 445.404C389.918 445.472 390.124 445.472 390.309 445.403C390.469 445.328 394.119 443.823 396.069 446.269C396.167 446.408 396.312 446.512 396.482 446.564C396.651 446.615 396.833 446.61 396.999 446.551V446.551Z" fill="#34283A"/>
<path d="M285.63 611.98C285.63 611.98 322.24 559.609 329.11 551.246C336.11 542.713 345.29 535.187 356.74 540.201C368.19 545.216 377.81 560.587 368.47 572.187C359.13 583.786 338.22 613.222 331.12 618.716C324.02 624.21 311.35 635.941 311.19 630.644C311.03 625.348 285.63 611.98 285.63 611.98Z" fill="#1D2538"/>
<path d="M285.629 611.98C283.939 609.901 296.119 596.759 307.999 581.378C317.209 569.449 326.109 554.896 329.109 551.274C336.109 542.741 352.679 532.967 351.999 544.821C350.929 563.325 315.999 572.102 322.469 599.28C327.059 618.556 288.639 615.668 285.629 611.98Z" fill="#273252"/>
<path d="M341.57 563.062C341.57 563.062 326.38 568.019 318.73 581.876C311.08 595.733 341.57 563.062 341.57 563.062Z" fill="#273252"/>
<path d="M370 613.363C370 613.363 356 611.481 334 608.659C312 605.837 303 591.726 292 600.193C281 608.659 278 627.474 287 635C296 642.526 330 645.348 347 648.17C364 650.993 370 658.518 374 646.289C378 634.059 376 618.067 370 613.363Z" fill="#C94039"/>
<path d="M370 613.363C370 613.363 356 611.481 334 608.659C312 605.837 358.54 624.473 358.54 624.473C358.54 624.473 370 658.518 374 646.289C378 634.059 376 618.067 370 613.363Z" fill="#992C29"/>
<path d="M377.321 618.292C377.321 618.292 369.531 616.063 366.941 625.705C364.351 635.348 367.421 646.609 372.801 648.029C378.181 649.45 377.321 643.514 377.321 643.514C377.321 643.514 373.861 642.027 373.861 635.348C373.861 628.669 379.921 621.999 379.921 621.999L377.321 618.292Z" fill="#F3E7D9"/>
<path d="M373.18 639.177C370.18 634.238 371.61 629.553 373.09 623.26C374.94 615.423 378.78 607.709 381 603.015C385 594.548 392.56 595.075 397.11 593.955C404.73 592.074 407.69 592.469 407.69 592.469C407.69 592.469 413.63 594.52 412.54 596.383C411.45 598.245 402.68 597.982 402.85 598.264C403.02 598.546 404.62 597.907 406.51 598.923C407.162 599.337 407.694 599.898 408.055 600.556C408.417 601.213 408.597 601.945 408.58 602.686C408.646 603.462 408.442 604.238 408 604.896C408.576 604.782 409.177 604.872 409.688 605.148C410.199 605.424 410.584 605.866 410.77 606.392C411.248 607.647 411.515 608.964 411.56 610.296C411.357 611.493 410.883 612.635 410.17 613.645C410.17 613.645 411.56 612.704 412.55 615.132C413.54 617.559 412.1 620.654 412.01 621.209C411.01 627.794 394.01 631.199 394.01 631.199C393.457 633.305 392.446 635.279 391.042 636.998C389.637 638.718 387.87 640.145 385.85 641.19C378.85 644.953 378.46 644.746 377.01 643.429C375.648 642.081 374.37 640.662 373.18 639.177V639.177Z" fill="#F5894E"/>
</svg>
